<?xml version="1.0" standalone="no"?>
<!DOCTYPE svg PUBLIC "-//W3C//DTD SVG 20010904//EN"
 "http://www.w3.org/TR/2001/REC-SVG-20010904/DTD/svg10.dtd">
<svg version="1.0" xmlns="http://www.w3.org/2000/svg"
 width="180.000000pt" height="180.000000pt" viewBox="0 0 180.000000 180.000000"
 preserveAspectRatio="xMidYMid meet">
<metadata>
Created by potrace 1.11, written by Peter Selinger 2001-2013
</metadata>
<g transform="translate(0.000000,180.000000) scale(0.100000,-0.100000)"
fill="#000000" stroke="none">
<path d="M130 1789 c0 -5 5 -7 10 -4 6 3 10 8 10 11 0 2 -4 4 -10 4 -5 0 -10
-5 -10 -11z"/>
<path d="M184 1773 c11 -46 12 -66 1 -70 -6 -1 -15 7 -20 19 -6 12 -22 25 -37
29 -24 6 -28 4 -33 -23 -4 -17 -16 -33 -28 -38 l-22 -9 23 0 c17 -1 22 -7 23
-28 2 -75 -4 -127 -17 -140 -8 -8 -11 -19 -8 -25 4 -6 -1 -8 -14 -4 -30 10
-34 -7 -21 -75 9 -48 9 -66 0 -81 -7 -11 -9 -28 -6 -39 4 -12 1 -21 -9 -25
-13 -5 -16 -24 -16 -95 0 -49 4 -89 8 -89 5 0 17 15 27 34 26 48 94 57 95 13
0 -4 -6 -7 -12 -5 -21 4 -68 -12 -68 -23 0 -6 8 -9 17 -8 39 3 54 -2 62 -23
11 -30 11 -30 -27 -16 -23 9 -35 9 -43 1 -8 -8 0 -22 31 -52 36 -35 39 -41 22
-41 -12 0 -29 -10 -38 -23 -17 -22 -19 -22 -36 -5 -30 30 -36 21 -36 -53 0
-65 2 -74 26 -95 32 -28 48 -30 61 -6 8 14 11 14 12 2 2 -22 2 -23 -5 -47 -6
-18 -2 -22 23 -28 33 -7 38 -18 40 -89 1 -31 -3 -52 -11 -57 -8 -6 -2 -9 20
-9 27 0 32 -3 32 -25 0 -17 -6 -25 -17 -26 -35 -1 20 -18 61 -18 31 -1 37 -4
32 -17 -5 -13 -1 -15 20 -10 20 5 30 2 40 -13 8 -11 21 -18 28 -15 8 3 16 -4
20 -20 3 -14 11 -26 17 -26 6 0 7 5 4 10 -12 19 18 10 36 -12 l19 -21 0 33 c0
30 -2 32 -30 28 -16 -3 -30 -1 -30 4 0 4 25 8 56 8 30 0 53 -4 50 -9 -9 -14
67 -19 86 -6 10 6 15 15 11 18 -3 4 1 7 9 7 11 0 17 -14 21 -46 2 -26 11 -50
18 -54 7 -5 12 -23 12 -41 0 -19 9 -42 19 -53 11 -12 18 -34 17 -55 0 -20 -3
-29 -6 -21 -2 8 -7 22 -10 30 -4 8 -5 21 -4 27 1 7 -3 13 -9 13 -13 0 -13 -63
1 -77 8 -8 8 -13 0 -17 -6 -4 -11 -28 -11 -53 0 -82 -11 -39 -20 82 -6 65 -13
121 -16 124 -3 3 -39 6 -81 6 -66 1 -77 4 -84 21 -4 10 -8 14 -8 8 -1 -6 -17
-18 -36 -27 -32 -15 -40 -27 -36 -51 3 -13 -21 -37 -44 -46 -15 -6 -23 -2 -31
12 -9 18 -12 13 -19 -33 -4 -30 -8 -75 -8 -101 -1 -27 -5 -48 -9 -48 -4 0 -8
5 -8 11 0 5 -5 7 -10 4 -6 -3 -10 -17 -10 -31 l0 -24 136 0 c121 0 139 2 161
20 32 25 43 25 43 0 0 -20 7 -20 284 -20 l285 0 4 53 3 52 2 -52 2 -53 75 0
c75 0 75 0 76 28 1 15 1 33 0 40 -2 16 4 15 23 -4 9 -8 16 -11 16 -5 0 16 137
14 143 -1 3 -10 7 -10 20 0 8 7 41 16 71 19 47 5 56 3 56 -10 0 -8 3 -22 6
-31 5 -12 -4 -15 -48 -15 -29 1 -57 4 -63 9 -5 4 -35 4 -65 1 -30 -4 -72 -6
-92 -6 -21 0 -38 -5 -38 -10 0 -7 64 -11 171 -13 l172 -3 -6 41 c-3 22 -1 40
4 40 5 0 9 -7 9 -15 0 -24 22 -65 36 -65 12 0 5 54 -10 79 -16 25 -46 154 -46
196 0 33 4 45 15 45 19 0 19 19 0 26 -11 4 -15 21 -15 58 0 36 -3 47 -10 36
-5 -8 -10 -25 -10 -37 0 -13 -5 -23 -11 -23 -5 0 -7 -4 -4 -10 4 -6 -8 -10
-29 -10 -20 0 -36 -4 -36 -9 0 -5 21 -6 46 -3 l45 5 -3 -34 -3 -34 -155 -5
c-85 -3 -141 -7 -125 -8 17 -1 37 -7 45 -12 11 -7 -1 -10 -41 -10 l-57 0 -7
101 c-8 111 -5 119 47 119 15 0 30 5 34 12 4 6 3 8 -3 5 -14 -9 -61 35 -55 51
6 19 -103 16 -122 -3 -20 -21 -26 -19 -20 7 3 13 8 33 11 46 5 23 -20 62 -40
62 -5 0 -1 -8 10 -18 10 -9 14 -14 9 -9 -14 10 -45 9 -83 -5 -29 -11 -33 -17
-39 -61 -8 -59 -62 -125 -91 -112 -25 11 -94 7 -110 -7 -10 -8 -20 -8 -39 1
-31 14 -37 14 -29 1 3 -5 2 -10 -4 -10 -5 0 -13 5 -17 11 -5 8 -9 8 -14 -1 -4
-7 -7 2 -6 21 1 29 6 34 36 42 19 5 37 13 40 18 3 4 16 6 28 2 l22 -5 -25 -22
-25 -22 37 -1 c41 -1 82 16 127 54 l29 24 -29 -7 c-16 -4 -34 -11 -40 -16 -6
-4 -18 -6 -25 -3 -8 2 -30 6 -49 9 -50 5 -66 14 -79 42 -16 36 -14 52 14 88
14 18 25 38 25 44 0 15 3 15 33 1 22 -10 29 -6 78 41 38 37 43 45 18 26 -42
-31 -72 -35 -62 -8 6 14 4 15 -9 4 -13 -10 -18 -10 -30 2 -8 7 -39 26 -69 41
-30 15 -57 32 -60 36 -8 14 -49 -47 -49 -73 1 -13 9 -69 18 -125 25 -147 27
-145 -105 -137 -60 3 -155 7 -213 8 l-105 3 -7 99 c-4 54 -10 160 -13 234 -4
74 -8 153 -10 175 -2 22 -4 70 -5 108 -1 37 -5 65 -9 63 -4 -3 -8 1 -8 9 0 8
4 12 9 9 4 -3 8 2 8 11 0 9 -5 13 -10 10 -8 -5 -10 55 -9 187 2 107 -1 199 -5
206 -4 7 -4 26 -1 43 4 17 4 51 0 75 -5 36 -10 44 -27 44 -17 0 -19 -4 -14
-27z m-34 -249 c0 -2 -7 -4 -15 -4 -8 0 -15 4 -15 10 0 5 7 7 15 4 8 -4 15 -8
15 -10z m-10 -75 c0 -5 -4 -9 -10 -9 -5 0 -10 7 -10 16 0 8 5 12 10 9 6 -3 10
-10 10 -16z m-50 2 c0 -15 -38 -20 -44 -5 -4 10 2 14 19 14 14 0 25 -4 25 -9z
m20 -167 c0 -19 -4 -34 -10 -34 -13 0 -24 45 -16 66 10 25 26 6 26 -32z m10
-63 c0 -5 3 -16 6 -24 3 -9 -3 -16 -15 -20 -18 -4 -21 0 -21 24 0 19 5 29 15
29 8 0 15 -4 15 -9z m15 -332 c-4 -5 -13 -9 -22 -9 -13 0 -13 3 -3 15 13 15
35 11 25 -6z m-68 -21 c-3 -8 -6 -5 -6 6 -1 11 2 17 5 13 3 -3 4 -12 1 -19z
m157 -35 c-2 -46 -3 -48 -33 -51 -30 -3 -31 -2 -31 36 0 31 5 41 23 50 38 18
43 14 41 -35z m-77 -13 c0 -31 -3 -40 -17 -40 -10 0 -20 10 -24 24 -3 13 -9
31 -12 40 -5 12 0 16 24 16 28 0 29 -2 29 -40z m618 -219 c3 -5 1 -12 -5 -16
-5 -3 -10 1 -10 9 0 18 6 21 15 7z m2 -58 c-14 -15 -29 -24 -32 -21 -4 3 1 12
10 19 9 8 21 19 28 25 25 24 20 2 -6 -23z m-513 -12 c3 -5 -4 -11 -16 -14 -25
-7 -33 -3 -23 12 8 13 32 14 39 2z m26 -31 c0 -5 -10 -10 -22 -10 -19 0 -20 2
-8 10 19 13 30 13 30 0z m770 -39 c0 -11 -39 -59 -40 -49 0 14 23 58 32 58 4
0 8 -4 8 -9z m106 -66 c-4 -14 -13 -25 -21 -25 -12 0 -12 5 2 36 18 37 29 31
19 -11z m-329 -11 c32 -11 34 -13 13 -14 -14 0 -36 10 -50 23 -14 12 -20 18
-13 13 7 -4 30 -14 50 -22z m293 -59 c0 -8 -7 -15 -15 -15 -26 0 -18 20 13 29
1 1 2 -6 2 -14z m357 -61 c-3 -3 -12 -4 -19 -1 -8 3 -5 6 6 6 11 1 17 -2 13
-5z m131 -1 c-15 -2 -42 -2 -60 0 -18 2 -6 4 27 4 33 0 48 -2 33 -4z m52 -45
l0 -33 -173 -3 -174 -2 5 30 4 30 83 0 c57 0 85 -4 88 -12 4 -10 7 -10 14 -1
5 6 31 13 58 16 28 2 60 4 73 5 19 2 22 -3 22 -30z m-523 -10 c-3 -7 -5 -2 -5
12 0 14 2 19 5 13 2 -7 2 -19 0 -25z m-57 -48 c0 -5 -5 -10 -11 -10 -5 0 -7 5
-4 10 3 6 8 10 11 10 2 0 4 -4 4 -10z m41 -23 c-8 -8 -11 -7 -11 4 0 20 13 34
18 19 3 -7 -1 -17 -7 -23z m38 -10 c0 -21 -1 -21 -9 -2 -12 28 -12 37 0 30 6
-3 10 -16 9 -28z m409 26 c-10 -2 -28 -2 -40 0 -13 2 -5 4 17 4 22 1 32 -1 23
-4z m-104 -13 c16 -6 26 -17 26 -30 0 -18 -6 -20 -85 -20 l-85 0 0 30 c0 30 0
30 59 30 33 0 71 -4 85 -10z m189 -19 c7 -28 1 -31 -69 -31 -52 0 -65 3 -74
19 -5 11 -10 22 -10 25 0 3 33 6 74 6 65 0 74 -2 79 -19z m-578 -11 c-3 -5
-13 -10 -21 -10 -8 0 -12 5 -9 10 3 6 13 10 21 10 8 0 12 -4 9 -10z m-628 -56
c-3 -3 -12 -4 -19 -1 -8 3 -5 6 6 6 11 1 17 -2 13 -5z"/>
<path d="M1383 133 c15 -2 37 -2 50 0 12 2 0 4 -28 4 -27 0 -38 -2 -22 -4z"/>
<path d="M881 1226 c-7 -8 -29 -17 -49 -21 -21 -3 -44 -11 -52 -16 -11 -8 -9
-9 10 -3 l25 6 -28 -22 c-34 -27 -75 -102 -58 -108 6 -2 11 -10 11 -17 0 -27
56 -135 70 -136 8 0 1 -5 -16 -10 -18 -5 -34 -16 -38 -24 -4 -12 0 -12 21 2
15 10 24 13 20 6 -13 -21 5 -44 56 -69 62 -29 79 -30 102 -4 17 19 17 20 2 14
-10 -4 -25 0 -35 8 -9 9 -24 18 -32 21 -10 3 -7 6 8 6 12 1 25 -6 28 -14 7
-16 24 -11 24 7 0 6 -3 9 -6 5 -3 -3 -12 -1 -18 6 -10 9 -6 15 18 27 32 16 53
68 40 99 -4 9 -8 19 -8 23 -2 15 -16 19 -33 9 -11 -6 -13 -11 -5 -11 7 0 10
-5 6 -12 -11 -17 -43 28 -37 52 4 16 2 19 -11 14 -18 -7 -20 0 -6 26 6 12 7
21 0 25 -5 3 -6 13 -3 22 4 10 2 14 -4 10 -6 -4 -10 8 -11 29 -1 19 2 32 7 29
5 -2 12 2 15 11 9 23 2 28 -13 10z m-13 -157 c-6 -16 -12 -28 -14 -26 -5 5 13
57 20 57 3 0 0 -14 -6 -31z"/>
<path d="M1611 1224 c0 -11 3 -14 6 -6 3 7 2 16 -1 19 -3 4 -6 -2 -5 -13z"/>
<path d="M1536 1211 c-3 -5 -3 -17 1 -27 5 -13 3 -15 -7 -9 -10 6 -12 2 -7
-16 4 -13 7 -37 8 -54 1 -18 3 -23 6 -12 3 12 9 15 16 9 7 -5 23 -12 37 -15
18 -5 25 -13 27 -33 0 -14 8 -34 18 -43 15 -15 17 -15 29 2 7 9 11 28 9 41 -3
16 2 31 17 46 17 17 21 29 15 56 -5 29 -10 34 -35 34 -16 0 -41 5 -57 12 -40
16 -71 20 -77 9z"/>
<path d="M1660 1210 c0 -5 5 -10 11 -10 5 0 7 5 4 10 -3 6 -8 10 -11 10 -2 0
-4 -4 -4 -10z"/>
<path d="M1006 1178 c5 -8 2 -9 -11 -4 -18 7 -18 6 0 -14 23 -25 23 -25 23 5
0 14 -5 25 -10 25 -5 0 -6 -5 -2 -12z"/>
<path d="M1493 1140 c0 -30 2 -43 4 -27 2 15 2 39 0 55 -2 15 -4 2 -4 -28z"/>
<path d="M1034 1063 c-14 -5 -6 -43 8 -43 5 0 7 4 4 9 -4 5 -2 11 4 13 5 1 6
8 2 14 -4 6 -12 9 -18 7z"/>
<path d="M21 1044 c0 -11 3 -14 6 -6 3 7 2 16 -1 19 -3 4 -6 -2 -5 -13z"/>
<path d="M1080 779 c-15 -27 -21 -131 -9 -150 11 -17 12 -10 9 68 -1 33 3 71
9 82 7 12 9 21 7 21 -3 0 -10 -9 -16 -21z"/>
<path d="M1423 773 c-18 -6 -16 -40 1 -40 8 0 13 10 12 24 0 12 -1 23 -1 22 0
0 -6 -3 -12 -6z"/>
<path d="M1101 714 c0 -11 3 -14 6 -6 3 7 2 16 -1 19 -3 4 -6 -2 -5 -13z"/>
<path d="M1617 675 c-4 -8 -12 -14 -18 -13 -6 2 -13 -2 -16 -9 -3 -7 3 -10 16
-6 18 5 36 31 27 40 -2 2 -6 -3 -9 -12z"/>
<path d="M1545 650 c-3 -6 1 -7 9 -4 18 7 21 14 7 14 -6 0 -13 -4 -16 -10z"/>
<path d="M1510 588 c0 -28 2 -49 4 -47 8 9 13 99 5 99 -5 0 -9 -23 -9 -52z"/>
<path d="M1351 563 c-1 -23 22 -32 34 -13 3 6 0 10 -9 10 -8 0 -17 6 -19 13
-3 6 -6 2 -6 -10z"/>
<path d="M1417 553 c-3 -5 -2 -15 2 -22 5 -7 11 -9 14 -4 3 5 2 15 -2 22 -5 7
-11 9 -14 4z"/>
<path d="M1477 545 c-4 -8 -2 -17 3 -20 6 -4 10 3 10 14 0 25 -6 27 -13 6z"/>
<path d="M1556 525 c4 -8 1 -21 -5 -29 -9 -11 -8 -15 5 -20 10 -4 22 -2 28 4
7 7 6 10 -2 10 -7 0 -12 7 -12 15 0 10 6 12 18 8 15 -6 15 -5 3 10 -17 21 -43
23 -35 2z"/>
<path d="M618 523 c7 -3 16 -2 19 1 4 3 -2 6 -13 5 -11 0 -14 -3 -6 -6z"/>
<path d="M1641 513 c-1 -13 -5 -23 -11 -23 -5 0 -10 -4 -10 -10 0 -12 10 -13
29 -1 12 8 12 14 4 33 l-12 23 0 -22z"/>
<path d="M1515 510 c3 -5 11 -10 16 -10 6 0 7 5 4 10 -3 6 -11 10 -16 10 -6 0
-7 -4 -4 -10z"/>
<path d="M1420 500 c0 -5 5 -10 11 -10 5 0 7 5 4 10 -3 6 -8 10 -11 10 -2 0
-4 -4 -4 -10z"/>
<path d="M1745 480 c-3 -5 -1 -10 4 -10 6 0 11 5 11 10 0 6 -2 10 -4 10 -3 0
-8 -4 -11 -10z"/>
<path d="M1680 459 c0 -5 5 -7 10 -4 6 3 10 8 10 11 0 2 -4 4 -10 4 -5 0 -10
-5 -10 -11z"/>
<path d="M1363 453 c9 -2 25 -2 35 0 9 3 1 5 -18 5 -19 0 -27 -2 -17 -5z"/>
<path d="M1453 453 c9 -2 23 -2 30 0 6 3 -1 5 -18 5 -16 0 -22 -2 -12 -5z"/>
<path d="M1523 453 c15 -2 39 -2 55 0 15 2 2 4 -28 4 -30 0 -43 -2 -27 -4z"/>
<path d="M1628 453 c7 -3 16 -2 19 1 4 3 -2 6 -13 5 -11 0 -14 -3 -6 -6z"/>
<path d="M1424 379 c15 -9 16 -13 5 -20 -9 -5 6 -8 41 -8 54 1 55 1 20 11 -34
11 -34 11 -10 18 19 6 13 8 -25 9 -41 0 -46 -2 -31 -10z"/>
<path d="M1528 383 c7 -3 16 -2 19 1 4 3 -2 6 -13 5 -11 0 -14 -3 -6 -6z"/>
<path d="M1595 380 c3 -5 10 -10 16 -10 5 0 9 5 9 10 0 6 -7 10 -16 10 -8 0
-12 -4 -9 -10z"/>
<path d="M1702 300 c0 -8 4 -26 8 -40 6 -20 8 -21 8 -5 0 11 -3 29 -8 40 -5
12 -8 14 -8 5z"/>
</g>
</svg>
