<?xml version="1.0" standalone="no"?>
<!DOCTYPE svg PUBLIC "-//W3C//DTD SVG 20010904//EN"
 "http://www.w3.org/TR/2001/REC-SVG-20010904/DTD/svg10.dtd">
<svg version="1.0" xmlns="http://www.w3.org/2000/svg"
 width="724.000000pt" height="724.000000pt" viewBox="0 0 724.000000 724.000000"
 preserveAspectRatio="xMidYMid meet">
<metadata>
Created by potrace 1.11, written by Peter Selinger 2001-2013
</metadata>
<g transform="translate(0.000000,724.000000) scale(0.100000,-0.100000)"
fill="#000000" stroke="none">
<path d="M3398 7236 c-1 -2 -41 -7 -88 -10 -93 -7 -96 -8 -254 -31 -120 -18
-115 -17 -206 -39 -36 -8 -78 -17 -95 -20 -46 -9 -310 -91 -405 -126 -47 -18
-100 -37 -117 -44 -18 -6 -33 -14 -33 -18 0 -5 -7 -8 -15 -8 -22 0 -232 -104
-369 -182 -105 -61 -328 -207 -381 -250 -11 -9 -51 -42 -90 -73 -142 -114
-341 -304 -433 -414 -20 -24 -48 -55 -62 -70 -14 -14 -38 -44 -55 -66 -16 -22
-33 -44 -37 -50 -56 -70 -84 -110 -162 -230 -50 -77 -102 -160 -116 -185 -13
-25 -26 -47 -29 -50 -13 -11 -151 -299 -151 -314 0 -9 -5 -16 -12 -16 -6 0 -9
-3 -5 -6 3 -4 0 -19 -8 -35 -14 -25 -62 -150 -69 -174 -1 -5 -16 -53 -33 -105
-47 -140 -85 -290 -108 -417 -2 -16 -9 -53 -15 -83 -6 -30 -13 -77 -16 -105
-3 -27 -7 -59 -9 -71 -13 -61 -20 -214 -19 -419 0 -185 7 -380 14 -380 0 0 3
-27 6 -59 5 -58 45 -287 69 -396 4 -14 8 -36 11 -49 3 -14 7 -28 10 -33 3 -4
7 -17 9 -28 12 -63 103 -339 117 -355 4 -5 8 -15 8 -22 0 -7 13 -42 30 -78 16
-36 30 -68 30 -70 0 -5 116 -242 130 -265 5 -8 32 -55 61 -105 87 -150 216
-336 308 -445 11 -14 24 -30 28 -35 60 -79 268 -294 384 -395 41 -36 76 -67
79 -70 3 -3 23 -18 45 -35 22 -16 44 -35 48 -42 4 -7 12 -13 18 -13 5 0 20 -9
32 -21 26 -25 222 -160 252 -174 11 -5 34 -19 50 -31 75 -52 283 -159 442
-227 157 -67 239 -97 391 -142 145 -44 330 -88 417 -101 28 -3 59 -8 70 -10
56 -11 75 -14 130 -19 163 -17 226 -20 420 -20 276 0 366 7 640 51 185 29 593
146 697 200 15 8 30 14 33 14 21 -1 271 117 400 190 411 230 820 580 1083 925
12 17 42 55 65 86 95 125 297 454 297 484 0 8 4 15 8 17 9 3 58 104 107 218
15 36 33 79 40 95 14 33 84 231 90 255 2 8 16 56 30 105 35 122 55 210 80 350
22 122 25 141 30 203 3 31 9 86 12 122 15 138 7 603 -11 725 -3 17 -7 48 -10
70 -3 22 -7 49 -9 60 -3 11 -8 43 -12 70 -5 28 -9 52 -10 55 -2 8 -17 84 -21
106 -17 93 -106 394 -139 469 -7 17 -16 41 -20 55 -4 14 -18 48 -31 77 -13 28
-24 54 -24 57 0 6 -122 254 -148 301 -108 194 -239 386 -389 570 -115 141
-306 333 -458 458 -38 32 -80 67 -93 78 -12 10 -25 19 -27 19 -3 0 -16 9 -28
21 -43 40 -283 198 -402 264 -51 29 -255 134 -258 133 -1 0 -24 10 -52 22 -80
36 -88 39 -120 51 -16 7 -32 13 -35 14 -3 1 -12 4 -20 8 -121 46 -373 125
-421 131 -13 2 -31 6 -39 9 -8 4 -26 9 -40 11 -14 3 -50 10 -80 16 -30 6 -66
12 -80 14 -14 3 -45 8 -70 12 -63 10 -68 11 -135 18 -33 4 -73 9 -90 12 -33 6
-551 15 -557 10z"/>
</g>
</svg>
